<mxfile host="app.diagrams.net" modified="2024-06-06T02:46:58.080Z" agent="Mozilla/5.0 (Windows NT 10.0; Win64; x64) AppleWebKit/537.36 (KHTML, like Gecko) Chrome/125.0.0.0 Safari/537.36" version="24.4.13" etag="RJAhHesKBx6mR042YcTq" type="github">
  <diagram name="第 1 页" id="99kRtZyv5w2WZpLiLmdq">
    <mxGraphModel>
      <root>
        <mxCell id="0" />
        <mxCell id="1" parent="0" />
      </root>
    </mxGraphModel>
  </diagram>
</mxfile>
